<?xml version="1.0" encoding="UTF-8" standalone="no"?>
<!-- Generator: Adobe Illustrator 13.0.0, SVG Export Plug-In . SVG Version: 6.00 Build 14948)  -->

<svg
   xmlns:dc="http://purl.org/dc/elements/1.1/"
   xmlns:cc="http://creativecommons.org/ns#"
   xmlns:rdf="http://www.w3.org/1999/02/22-rdf-syntax-ns#"
   xmlns:svg="http://www.w3.org/2000/svg"
   xmlns="http://www.w3.org/2000/svg"
   xmlns:xlink="http://www.w3.org/1999/xlink"
   xmlns:sodipodi="http://sodipodi.sourceforge.net/DTD/sodipodi-0.dtd"
   xmlns:inkscape="http://www.inkscape.org/namespaces/inkscape"
   version="1.1"
   x="0px"
   y="0px"
   width="1280px"
   height="720px"
   viewBox="0 0 1280 720"
   enable-background="new 0 0 1280 720"
   xml:space="preserve"
   id="svg4139"
   sodipodi:docname="splash2.svg"
   inkscape:version="0.92.5 (2060ec1f9f, 2020-04-08)"><metadata
   id="metadata4145"><rdf:RDF><cc:Work
       rdf:about=""><dc:format>image/svg+xml</dc:format><dc:type
         rdf:resource="http://purl.org/dc/dcmitype/StillImage" /><dc:title></dc:title></cc:Work></rdf:RDF></metadata><defs
   id="defs4143"><linearGradient
     id="linearGradient1794"
     inkscape:collect="always"><stop
       id="stop1790"
       offset="0"
       style="stop-color:#000000;stop-opacity:1;" /><stop
       id="stop1792"
       offset="1"
       style="stop-color:#000000;stop-opacity:0;" /></linearGradient><linearGradient
     gradientTransform="translate(-122.71565,-1.3040141)"
     gradientUnits="userSpaceOnUse"
     y2="-70.441788"
     x2="62.993347"
     y1="-51.532005"
     x1="62.65379"
     id="linearGradient95"
     xlink:href="#linearGradient1794"
     inkscape:collect="always" /><linearGradient
     gradientUnits="userSpaceOnUse"
     y2="4.6773496"
     x2="66.52021"
     y1="-10.45048"
     x1="67.081116"
     id="linearGradient107"
     xlink:href="#linearGradient1794"
     inkscape:collect="always" /><radialGradient
     gradientUnits="userSpaceOnUse"
     gradientTransform="matrix(0.07777503,-1.9958864,2.8830696,0.05911279,-62.3741,318.11649)"
     r="9.7263556"
     fy="63.102879"
     fx="129.63853"
     cy="63.102879"
     cx="129.63853"
     id="radialGradient3622-5"
     xlink:href="#linearGradient3802"
     inkscape:collect="always" /><linearGradient
     inkscape:collect="always"
     id="linearGradient3802"><stop
       style="stop-color:#ffffff;stop-opacity:1"
       offset="0"
       id="stop3792" /><stop
       style="stop-color:#8c8cff;stop-opacity:1"
       offset="0.00000011"
       id="stop3794" /><stop
       style="stop-color:#143dad;stop-opacity:1;"
       offset="0.56308419"
       id="stop3796" /><stop
       style="stop-color:#0030a0;stop-opacity:1"
       offset="1"
       id="stop3798" /><stop
       style="stop-color:#2424d7;stop-opacity:0.85024154"
       offset="1"
       id="stop3800" /></linearGradient><linearGradient
     y2="47.212593"
     x2="123.91428"
     y1="76.192726"
     x1="125.88806"
     gradientUnits="userSpaceOnUse"
     id="linearGradient3879"
     xlink:href="#linearGradient2902"
     inkscape:collect="always" /><linearGradient
     id="linearGradient2902"
     inkscape:collect="always"><stop
       id="stop2898"
       offset="0"
       style="stop-color:#0000ff;stop-opacity:1" /><stop
       id="stop2900"
       offset="1"
       style="stop-color:#0000ff;stop-opacity:0;" /></linearGradient><radialGradient
     gradientUnits="userSpaceOnUse"
     gradientTransform="matrix(0.07777503,-1.9958864,2.8830696,0.05911279,-62.3741,318.11649)"
     r="9.7263556"
     fy="63.102879"
     fx="129.63853"
     cy="63.102879"
     cx="129.63853"
     id="radialGradient3622"
     xlink:href="#linearGradient3802"
     inkscape:collect="always" /><linearGradient
     y2="69.394913"
     x2="126.00619"
     y1="50.163239"
     x1="166.34985"
     gradientUnits="userSpaceOnUse"
     id="linearGradient2896-6"
     xlink:href="#linearGradient2912"
     inkscape:collect="always" /><linearGradient
     inkscape:collect="always"
     id="linearGradient2912"><stop
       style="stop-color:#1c1963;stop-opacity:1"
       offset="0"
       id="stop2906" /><stop
       style="stop-color:#3636e9;stop-opacity:0.40784314"
       offset="0.44997302"
       id="stop2908" /><stop
       style="stop-color:#eaeeff;stop-opacity:1"
       offset="1"
       id="stop2910" /></linearGradient><linearGradient
     gradientTransform="matrix(0.96795695,0,0,0.99999999,3.8548876,3.5486767e-7)"
     y2="69.394913"
     x2="126.00619"
     y1="50.163239"
     x1="166.34985"
     gradientUnits="userSpaceOnUse"
     id="linearGradient2916-1"
     xlink:href="#linearGradient2912"
     inkscape:collect="always" /><linearGradient
     gradientTransform="matrix(3.8463354,-0.17016461,0.17778184,3.6815351,-61.919515,254.08444)"
     gradientUnits="userSpaceOnUse"
     y2="-32.016235"
     x2="93.385231"
     y1="-32.016235"
     x1="33.249409"
     id="linearGradient5197"
     xlink:href="#linearGradient5207"
     inkscape:collect="always" /><linearGradient
     id="linearGradient5207"
     inkscape:collect="always"><stop
       id="stop5199"
       offset="0"
       style="stop-color:#ffffff;stop-opacity:1" /><stop
       id="stop5201"
       offset="0"
       style="stop-color:#8c8cff;stop-opacity:1" /><stop
       id="stop5251"
       offset="0.56308419"
       style="stop-color:#143dad;stop-opacity:1;" /><stop
       id="stop5203"
       offset="1"
       style="stop-color:#0030a0;stop-opacity:1" /><stop
       id="stop5205"
       offset="1"
       style="stop-color:#000000;stop-opacity:1" /></linearGradient><radialGradient
     gradientUnits="userSpaceOnUse"
     gradientTransform="matrix(3.7600591,-0.80341313,1.3145718,5.7374896,-20.033205,361.92669)"
     r="27.812195"
     fy="-32.836994"
     fx="64.490433"
     cy="-32.836994"
     cx="64.490433"
     id="radialGradient5247"
     xlink:href="#linearGradient5243"
     inkscape:collect="always" /><linearGradient
     id="linearGradient5243"
     inkscape:collect="always"><stop
       id="stop5239"
       offset="0"
       style="stop-color:#1c1963;stop-opacity:1" /><stop
       id="stop5249"
       offset="0.44997302"
       style="stop-color:#3636e9;stop-opacity:0.40784314" /><stop
       id="stop5241"
       offset="1"
       style="stop-color:#eaeeff;stop-opacity:0" /></linearGradient><radialGradient
     gradientUnits="userSpaceOnUse"
     gradientTransform="matrix(3.8504419,0,0,3.6900094,-69.028635,242.87653)"
     r="38.999886"
     fy="-31.826056"
     fx="63.34309"
     cy="-31.826056"
     cx="63.34309"
     id="radialGradient2389"
     xlink:href="#linearGradient1794"
     inkscape:collect="always" /><linearGradient
     gradientTransform="matrix(3.8504419,0,0,3.6854655,-69.028635,242.73192)"
     gradientUnits="userSpaceOnUse"
     y2="-31.826057"
     x2="104.80615"
     y1="-31.826057"
     x1="21.880033"
     id="linearGradient3040"
     xlink:href="#linearGradient1794"
     inkscape:collect="always" /><linearGradient
     inkscape:collect="always"
     xlink:href="#linearGradient2912"
     id="linearGradient4991"
     gradientUnits="userSpaceOnUse"
     gradientTransform="matrix(0.96795695,0,0,0.99999999,3.8548876,3.5486767e-7)"
     x1="166.34985"
     y1="50.163239"
     x2="126.00619"
     y2="69.394913" /><linearGradient
     inkscape:collect="always"
     xlink:href="#linearGradient2912"
     id="linearGradient4993"
     gradientUnits="userSpaceOnUse"
     x1="166.34985"
     y1="50.163239"
     x2="126.00619"
     y2="69.394913" /><linearGradient
     inkscape:collect="always"
     xlink:href="#linearGradient2902"
     id="linearGradient4995"
     gradientUnits="userSpaceOnUse"
     x1="125.88806"
     y1="76.192726"
     x2="123.91428"
     y2="47.212593" /></defs><sodipodi:namedview
   pagecolor="#000000"
   bordercolor="#666666"
   borderopacity="1"
   objecttolerance="10"
   gridtolerance="10"
   guidetolerance="10"
   inkscape:pageopacity="0"
   inkscape:pageshadow="2"
   inkscape:window-width="1280"
   inkscape:window-height="656"
   id="namedview4141"
   showgrid="false"
   inkscape:zoom="0.48"
   inkscape:cx="676.16056"
   inkscape:cy="399.7127"
   inkscape:window-x="0"
   inkscape:window-y="27"
   inkscape:window-maximized="1"
   inkscape:current-layer="svg4139" />



<g
   id="g5117"
   transform="translate(6.25,81.25)"><g
     transform="translate(-262.5,200)"
     id="Layer_2">
</g><g
     transform="translate(-262.5,200)"
     id="Layer_3">
</g><g
     inkscape:label="Layer 1"
     id="layer1"
     transform="matrix(1.3539674,0,0,1.264319,-44.41646,182.17907)"><g
       transform="scale(0.26458333)"
       style="font-style:normal;font-weight:normal;font-size:40px;line-height:1.25;font-family:sans-serif;letter-spacing:0px;word-spacing:0px;fill:#000000;fill-opacity:1;stroke:none"
       id="flowRoot3586" /><path
       inkscape:connector-curvature="0"
       id="path1448"
       style="display:inline;opacity:0;fill:url(#radialGradient2389);fill-opacity:1;fill-rule:evenodd;stroke:url(#linearGradient3040);stroke-width:0.86317408;stroke-linejoin:bevel;stroke-miterlimit:4;stroke-dasharray:none;paint-order:markers stroke fill"
       d="M 324.46227,125.4381 A 149.59202,143.35979 0 0 1 174.87025,268.79791 149.59202,143.35979 0 0 1 25.278245,125.4381 149.59202,143.35979 0 0 1 174.87025,-17.921693 149.59202,143.35979 0 0 1 324.46227,125.4381 Z" /><path
       inkscape:connector-curvature="0"
       id="path5149"
       style="display:inline;mix-blend-mode:normal;fill:url(#radialGradient5247);fill-opacity:1;stroke-width:0.5910728"
       d="m 270.26252,21.515685 -37.82687,40.945028 c -5.19902,10.828751 -13.70972,22.391941 -24.19186,32.864091 -25.97037,25.944486 -57.02871,38.576686 -69.37126,28.214896 -15.72012,-38.004258 13.08252,-56.633901 22.56548,-64.603133 -0.55677,-22.631934 -0.0109,-38.605667 0.0605,-47.503616 0.0589,-7.2936321 7.19773,-11.56082313 7.19773,-11.56082313 L 115.61847,27.82378 85.891855,72.921967 l 1.4066,36.441523 8.320964,-0.47883 c -2.486233,12.37492 -1.734476,25.0735 2.191053,37.01096 0.293958,0.89429 0.605334,1.78324 0.934043,2.66644 l -7.618109,2.29596 -12.512531,37.74323 6.21046,33.63863 43.639025,-39.51441 c 5.19902,-10.82875 7.89689,-23.82084 18.37904,-34.29299 14.55721,-14.54318 31.49805,-25.57648 45.87632,-29.87844 10.28456,-3.07717 18.5491,-2.49246 23.49749,1.66237 12.66385,36.16625 -0.82477,58.86708 -21.8985,74.80691 l 0.31834,42.3738 -0.54481,6.43187 -4.27195,7.02162 58.56527,-54.95907 24.11992,-47.13394 -1.19902,17.21722 -12.82068,-26.87473 c 3.59014,-13.66441 3.17204,-27.9136 -1.2101,-41.24085 -0.34969,-1.063559 -0.72413,-2.119471 -1.12297,-3.167142 l 25.67752,-21.881529 z"
       sodipodi:nodetypes="cccccsccccccccccccscccccccccsccc" /><path
       inkscape:connector-curvature="0"
       id="path5151"
       style="display:inline;mix-blend-mode:normal;fill:url(#linearGradient5197);fill-opacity:1;stroke-width:0.99826467"
       d="M 229.17901,1.4214579 C 227.18754,21.459013 220.33594,44.445456 209.71253,66.729686 145.06252,199.87564 72.149875,127.37109 116.61787,30.713903 121.65213,20.154381 127.43365,9.9629539 133.7474,0.51870287 5.3105448,59.958985 71.097635,195.13406 123.23239,249.43466 c 1.99176,-20.03723 8.84331,-43.02293 19.46642,-65.30638 14.75305,-30.94617 35.34819,-57.56563 55.77218,-72.08608 14.60744,-10.38555 28.12405,-13.857283 38.43038,-9.87087 25.70781,9.94466 25.21181,62.76221 -1.10786,117.97083 -5.03487,10.56034 -10.81707,20.75239 -17.13154,30.19706 C 314.36535,123.60488 311.84921,84.675416 229.17895,1.4214129 Z"
       sodipodi:nodetypes="sccccccccccs" /><g
       aria-label=" β"
       transform="matrix(1.2827563,0,0,1.7206812,9.5091248,-79.660205)"
       style="font-style:normal;font-weight:normal;font-size:23.61588097px;line-height:1.25;font-family:sans-serif;display:inline;opacity:0.22400004;fill:#ffffff;fill-opacity:1;stroke:url(#linearGradient4993);stroke-width:0.59039629"
       id="text1780-7-3-6"><path
         d="m 130.43934,56.256734 c 0.6594,-0.940758 0.9891,-1.74635 0.9891,-2.416775 0,-0.919132 -0.20933,-1.686877 -0.628,-2.303236 -0.40821,-0.627172 -1.08855,-0.940758 -2.04103,-0.940758 -1.14089,0 -1.91543,0.459566 -2.32364,1.378697 -0.40821,0.908319 -0.61231,2.222136 -0.61231,3.941453 v 7.039467 c 0,1.719317 0.31924,3.038541 0.95771,3.957672 0.64895,0.908319 1.57527,1.362478 2.77895,1.362478 1.33975,0 2.26607,-0.367653 2.77894,-1.102958 0.51287,-0.735305 0.76931,-1.324631 0.76931,-1.767977 0,-1.546304 -0.61755,-2.779022 -1.85263,-3.698153 -0.66988,-0.464973 -1.92589,-0.719086 -3.76805,-0.762339 v -3.698153 c 1.70609,-0.270333 2.68998,-0.600139 2.95165,-0.989418 z m -10.13576,23.389631 -0.1008,-23.422071 c -0.0131,-3.038525 0.72222,-5.330963 2.16663,-6.877267 1.19322,-1.286784 2.37074,-2.108596 3.53255,-2.465435 1.16182,-0.367653 2.1457,-0.551479 2.95165,-0.551479 0.80595,0.01081 1.27172,0.02703 1.39732,0.04866 2.1457,0.346026 3.82039,1.216498 5.02408,2.611415 0.83734,0.951571 1.25601,2.400555 1.25601,4.346952 0,0.994825 -0.28783,1.940989 -0.86351,2.838494 -0.70127,1.102958 -1.57526,1.69769 -2.62194,1.784197 1.54909,0.432533 2.80511,1.102958 3.76805,2.011276 1.50723,1.394917 2.26084,3.184521 2.26084,5.36881 0,1.92477 -0.65417,3.600834 -1.96253,5.028191 -1.30835,1.416544 -3.14005,2.124816 -5.49508,2.124816 -2.35503,0 -4.28617,-1.032671 -5.79339,-3.098014 l 0.0646,6.797817 z"
         style="font-weight:bold;font-size:33.21849823px;fill:#ffffff;fill-opacity:1;stroke:url(#linearGradient4991);stroke-width:0.5808602"
         id="path2867"
         inkscape:connector-curvature="0"
         sodipodi:nodetypes="cscscsscssscccccscccccscccscsccc" /></g><g
       aria-label=" β"
       transform="matrix(-1.5318432,0,0,-1.6751285,376.21259,330.76739)"
       style="font-style:normal;font-weight:normal;font-size:23.61588097px;line-height:1.25;font-family:sans-serif;display:inline;opacity:0.22400004;fill:#ffffff;fill-opacity:1;stroke:url(#linearGradient2896-6);stroke-width:0.59039629"
       id="text1780-7-3-6-8"><path
         d="m 130.43934,56.256734 c 0.6594,-0.940758 0.9891,-1.74635 0.9891,-2.416775 0,-0.919132 -0.20933,-1.686877 -0.628,-2.303236 -0.40821,-0.627172 -1.08855,-0.940758 -2.04103,-0.940758 -1.14089,0 -1.91543,0.459566 -2.32364,1.378697 -0.40821,0.908319 -0.61231,2.222136 -0.61231,3.941453 v 7.039467 c 0,1.719317 0.31924,3.038541 0.95771,3.957672 0.64895,0.908319 1.57527,1.362478 2.77895,1.362478 1.33975,0 2.26607,-0.367653 2.77894,-1.102958 0.51287,-0.735305 0.76931,-1.324631 0.76931,-1.767977 0,-1.546304 -0.61755,-2.779022 -1.85263,-3.698153 -0.66988,-0.464973 -1.92589,-0.719086 -3.76805,-0.762339 v -3.698153 c 1.70609,-0.270333 2.68998,-0.600139 2.95165,-0.989418 z m -10.13576,23.389631 -0.1008,-23.422071 c -0.0131,-3.038525 0.72222,-5.330963 2.16663,-6.877267 1.19322,-1.286784 2.37074,-2.108596 3.53255,-2.465435 1.16182,-0.367653 2.1457,-0.551479 2.95165,-0.551479 0.80595,0.01081 1.27172,0.02703 1.39732,0.04866 2.1457,0.346026 3.82039,1.216498 5.02408,2.611415 0.83734,0.951571 1.25601,2.400555 1.25601,4.346952 0,0.994825 -0.28783,1.940989 -0.86351,2.838494 -0.70127,1.102958 -1.57526,1.69769 -2.62194,1.784197 1.54909,0.432533 2.80511,1.102958 3.76805,2.011276 1.50723,1.394917 2.26084,3.184521 2.26084,5.36881 0,1.92477 -0.65417,3.600834 -1.96253,5.028191 -1.30835,1.416544 -3.14005,2.124816 -5.49508,2.124816 -2.35503,0 -4.28617,-1.032671 -5.79339,-3.098014 l 0.0646,6.797817 z"
         style="font-weight:bold;font-size:33.21849823px;fill:#ffffff;fill-opacity:1;stroke:url(#linearGradient2916-1);stroke-width:0.5808602"
         id="path2867-7"
         inkscape:connector-curvature="0"
         sodipodi:nodetypes="cscscsscssscccccscccccscccscsccc" /></g><g
       aria-label=" β"
       transform="matrix(1.2827563,0,0,1.7206812,9.4818348,-79.322255)"
       style="font-style:normal;font-weight:normal;font-size:23.61588097px;line-height:1.25;font-family:sans-serif;display:inline;opacity:0.24600004;fill:url(#radialGradient3622);fill-opacity:1;stroke:#5e5eec;stroke-width:0.4449273;stroke-miterlimit:4;stroke-dasharray:none;stroke-opacity:0.82608696"
       id="text1780-7-3-6-0"><path
         d="m 130.43934,56.256734 c 0.6594,-0.940758 0.9891,-1.74635 0.9891,-2.416775 0,-0.919132 -0.20933,-1.686877 -0.628,-2.303236 -0.40821,-0.627172 -1.08855,-0.940758 -2.04103,-0.940758 -1.14089,0 -1.91543,0.459566 -2.32364,1.378697 -0.40821,0.908319 -0.61231,2.222136 -0.61231,3.941453 v 7.039467 c 0,1.719317 0.31924,3.038541 0.95771,3.957672 0.64895,0.908319 1.57527,1.362478 2.77895,1.362478 1.33975,0 2.26607,-0.367653 2.77894,-1.102958 0.51287,-0.735305 0.76931,-1.324631 0.76931,-1.767977 0,-1.546304 -0.61755,-2.779022 -1.85263,-3.698153 -0.66988,-0.464973 -1.92589,-0.719086 -3.76805,-0.762339 v -3.698153 c 1.70609,-0.270333 2.68998,-0.600139 2.95165,-0.989418 z m -10.13576,23.389631 -0.1008,-23.422071 c -0.0131,-3.038525 0.72222,-5.330963 2.16663,-6.877267 1.19322,-1.286784 2.37074,-2.108596 3.53255,-2.465435 1.16182,-0.367653 2.1457,-0.551479 2.95165,-0.551479 0.80595,0.01081 1.27172,0.02703 1.39732,0.04866 2.1457,0.346026 3.82039,1.216498 5.02408,2.611415 0.83734,0.951571 1.25601,2.400555 1.25601,4.346952 0,0.994825 -0.28783,1.940989 -0.86351,2.838494 -0.70127,1.102958 -1.57526,1.69769 -2.62194,1.784197 1.54909,0.432533 2.80511,1.102958 3.76805,2.011276 1.50723,1.394917 2.26084,3.184521 2.26084,5.36881 0,1.92477 -0.65417,3.600834 -1.96253,5.028191 -1.30835,1.416544 -3.14005,2.124816 -5.49508,2.124816 -2.35503,0 -4.28617,-1.032671 -5.79339,-3.098014 l 0.0646,6.797817 z"
         style="font-weight:bold;font-size:33.21849823px;fill:url(#linearGradient4995);fill-opacity:1;stroke:#5e5eec;stroke-width:0.4449273;stroke-miterlimit:4;stroke-dasharray:none;stroke-opacity:0.82608696"
         id="path2867-3"
         inkscape:connector-curvature="0"
         sodipodi:nodetypes="cscscsscssscccccscccccscccscsccc" /></g><g
       aria-label=" β"
       transform="matrix(-1.4567768,0,0,-1.6831099,366.88316,331.36407)"
       style="font-style:normal;font-weight:normal;font-size:23.61588097px;line-height:1.25;font-family:sans-serif;display:inline;opacity:0.24600004;fill:url(#radialGradient3622-5);fill-opacity:1;stroke:#5e5eec;stroke-width:0.4449273;stroke-miterlimit:4;stroke-dasharray:none;stroke-opacity:0.82608696"
       id="text1780-7-3-6-0-7"><path
         d="m 130.43934,56.256734 c 0.6594,-0.940758 0.9891,-1.74635 0.9891,-2.416775 0,-0.919132 -0.20933,-1.686877 -0.628,-2.303236 -0.40821,-0.627172 -1.08855,-0.940758 -2.04103,-0.940758 -1.14089,0 -1.91543,0.459566 -2.32364,1.378697 -0.40821,0.908319 -0.61231,2.222136 -0.61231,3.941453 v 7.039467 c 0,1.719317 0.31924,3.038541 0.95771,3.957672 0.64895,0.908319 1.57527,1.362478 2.77895,1.362478 1.33975,0 2.26607,-0.367653 2.77894,-1.102958 0.51287,-0.735305 0.76931,-1.324631 0.76931,-1.767977 0,-1.546304 -0.61755,-2.779022 -1.85263,-3.698153 -0.66988,-0.464973 -1.92589,-0.719086 -3.76805,-0.762339 v -3.698153 c 1.70609,-0.270333 2.68998,-0.600139 2.95165,-0.989418 z m -10.13576,23.389631 -0.1008,-23.422071 c -0.0131,-3.038525 0.72222,-5.330963 2.16663,-6.877267 1.19322,-1.286784 2.37074,-2.108596 3.53255,-2.465435 1.16182,-0.367653 2.1457,-0.551479 2.95165,-0.551479 0.80595,0.01081 1.27172,0.02703 1.39732,0.04866 2.1457,0.346026 3.82039,1.216498 5.02408,2.611415 0.83734,0.951571 1.25601,2.400555 1.25601,4.346952 0,0.994825 -0.28783,1.940989 -0.86351,2.838494 -0.70127,1.102958 -1.57526,1.69769 -2.62194,1.784197 1.54909,0.432533 2.80511,1.102958 3.76805,2.011276 1.50723,1.394917 2.26084,3.184521 2.26084,5.36881 0,1.92477 -0.65417,3.600834 -1.96253,5.028191 -1.30835,1.416544 -3.14005,2.124816 -5.49508,2.124816 -2.35503,0 -4.28617,-1.032671 -5.79339,-3.098014 l 0.0646,6.797817 z"
         style="font-weight:bold;font-size:33.21849823px;fill:url(#linearGradient3879);fill-opacity:1;stroke:#5e5eec;stroke-width:0.4449273;stroke-miterlimit:4;stroke-dasharray:none;stroke-opacity:0.82608696"
         id="path2867-3-2"
         inkscape:connector-curvature="0"
         sodipodi:nodetypes="cscscsscssscccccscccccscccscsccc" /></g></g><g
     transform="translate(-262.5,200)"
     style="font-style:normal;font-weight:normal;font-size:192px;line-height:1.25;font-family:sans-serif;letter-spacing:0px;word-spacing:0px;fill:#000000;fill-opacity:1;stroke:none"
     id="flowRoot5005" /><g
     style="font-style:normal;font-weight:normal;font-size:192px;line-height:1.25;font-family:sans-serif;letter-spacing:0px;word-spacing:0px;fill:#f2f2f2;fill-opacity:1;stroke:none"
     id="text5015" /><g
     id="text5019"
     style="font-style:normal;font-weight:normal;font-size:174.88568115px;line-height:1.25;font-family:sans-serif;letter-spacing:0px;word-spacing:0px;fill:#808080;fill-opacity:1;stroke:none;stroke-width:0.91086292"
     transform="scale(0.9518431,1.0505933)"
     aria-label="hotspotβnβ"><path
       id="path5061"
       style="font-style:normal;font-variant:normal;font-weight:normal;font-stretch:normal;font-size:174.88568115px;font-family:Cabin;-inkscape-font-specification:Cabin;fill:#808080;stroke-width:0.91086292"
       d="m 492.47674,396.53516 v -45.82005 c 0,-24.65888 -9.09405,-41.62279 -33.75294,-41.62279 -11.19268,0 -18.88765,3.49771 -24.83376,11.01779 V 265.3709 h -15.9146 v 131.16426 h 15.9146 v -62.25931 c 4.8968,-7.69497 11.89222,-11.19268 22.38536,-11.19268 15.21506,0 20.46163,7.3452 20.46163,27.63194 v 45.82005 z"
       inkscape:connector-curvature="0" /><path
       id="path5063"
       style="font-style:normal;font-variant:normal;font-weight:normal;font-stretch:normal;font-size:174.88568115px;font-family:Cabin;-inkscape-font-specification:Cabin;fill:#808080;stroke-width:0.91086292"
       d="m 550.36387,398.28401 c 26.75751,0 42.49722,-19.76208 42.49722,-44.59585 0,-24.83376 -15.73971,-44.59584 -42.49722,-44.59584 -26.93239,0 -42.49722,19.76208 -42.49722,44.59584 0,24.83377 15.56483,44.59585 42.49722,44.59585 z m 0,-75.20084 c 16.96391,0 26.40774,11.36757 26.40774,30.60499 0,19.23743 -9.44383,30.605 -26.40774,30.605 -16.96391,0 -26.40774,-11.36757 -26.40774,-30.605 0,-19.23742 9.44383,-30.60499 26.40774,-30.60499 z"
       inkscape:connector-curvature="0" /><path
       id="path5065"
       style="font-style:normal;font-variant:normal;font-weight:normal;font-stretch:normal;font-size:174.88568115px;font-family:Cabin;-inkscape-font-specification:Cabin;fill:#808080;stroke-width:0.91086292"
       d="m 652.84642,385.69224 h -4.02237 c -16.96391,0 -18.01323,-1.04931 -18.01323,-17.48856 v -45.12051 h 22.56026 v -12.242 h -22.56026 v -22.73514 l -15.73971,1.57398 v 21.16116 H 601.7798 l -1.39908,12.242 h 14.69039 v 54.73922 c 0,10.31825 6.121,20.46162 22.38537,20.46162 h 14.16574 z"
       inkscape:connector-curvature="0" /><path
       id="path5067"
       style="font-style:normal;font-variant:normal;font-weight:normal;font-stretch:normal;font-size:174.88568115px;font-family:Cabin;-inkscape-font-specification:Cabin;fill:#808080;stroke-width:0.91086292"
       d="m 691.14636,398.28401 c 26.23285,0 32.70362,-14.16574 32.70362,-25.53331 0,-17.83834 -16.08948,-23.08491 -24.484,-25.53331 -13.46619,-4.02237 -19.93696,-6.12099 -19.93696,-14.16574 0,-8.04474 6.82054,-11.54245 16.61414,-11.54245 9.61871,0 15.91459,3.32283 20.98628,7.52008 l 1.92374,-14.34062 c -5.24657,-2.62329 -11.89223,-5.59634 -23.2598,-5.59634 -23.43468,0 -32.17896,12.59176 -32.17896,25.70819 0,17.31368 15.21505,21.51094 26.93239,24.65888 6.99543,1.92374 17.1388,5.24657 17.1388,14.16574 0,6.82054 -6.121,10.66803 -17.1388,10.66803 -13.11642,0 -23.08491,-5.42146 -26.75751,-8.74429 l -1.92374,15.21506 c 4.02237,2.79817 14.16574,7.52008 29.3808,7.52008 z"
       inkscape:connector-curvature="0" /><path
       id="path5069"
       style="font-style:normal;font-variant:normal;font-weight:normal;font-stretch:normal;font-size:174.88568115px;font-family:Cabin;-inkscape-font-specification:Cabin;fill:#808080;stroke-width:0.91086292"
       d="m 781.91197,398.28401 c 25.35842,0 38.29997,-19.58719 38.29997,-44.59585 0,-23.43468 -14.16574,-44.59584 -38.12508,-44.59584 -13.99086,0 -21.51094,5.07168 -28.85614,13.99085 l -1.74886,-12.242 h -12.242 v 128.01632 h 15.73972 v -53.16525 c 6.47077,8.39452 19.23742,12.59177 26.93239,12.59177 z m -1.74886,-75.20084 c 15.04017,0 23.95934,13.11643 23.95934,30.60499 0,16.78903 -8.91917,30.605 -23.95934,30.605 -12.59176,0 -26.05796,-9.09406 -26.05796,-30.605 0,-20.63651 13.4662,-30.60499 26.05796,-30.60499 z"
       inkscape:connector-curvature="0" /><path
       id="path5071"
       style="font-style:normal;font-variant:normal;font-weight:normal;font-stretch:normal;font-size:174.88568115px;font-family:Cabin;-inkscape-font-specification:Cabin;fill:#808080;stroke-width:0.91086292"
       d="m 874.07656,398.28401 c 26.75751,0 42.49722,-19.76208 42.49722,-44.59585 0,-24.83376 -15.73971,-44.59584 -42.49722,-44.59584 -26.93239,0 -42.49722,19.76208 -42.49722,44.59584 0,24.83377 15.56483,44.59585 42.49722,44.59585 z m 0,-75.20084 c 16.96392,0 26.40774,11.36757 26.40774,30.60499 0,19.23743 -9.44382,30.605 -26.40774,30.605 -16.96391,0 -26.40773,-11.36757 -26.40773,-30.605 0,-19.23742 9.44382,-30.60499 26.40773,-30.60499 z"
       inkscape:connector-curvature="0" /><path
       id="path5073"
       style="font-style:normal;font-variant:normal;font-weight:normal;font-stretch:normal;font-size:174.88568115px;font-family:Cabin;-inkscape-font-specification:Cabin;fill:#808080;stroke-width:0.91086292"
       d="m 976.55914,385.69224 h -4.02237 c -16.96391,0 -18.01322,-1.04931 -18.01322,-17.48856 v -45.12051 h 22.56025 v -12.242 h -22.56025 v -22.73514 l -15.73971,1.57398 v 21.16116 h -13.29132 l -1.39908,12.242 h 14.6904 v 54.73922 c 0,10.31825 6.12099,20.46162 22.38536,20.46162 h 14.16574 z"
       inkscape:connector-curvature="0" /><path
       id="path5075"
       style="font-style:normal;font-variant:normal;font-weight:normal;font-stretch:normal;font-size:174.88568115px;font-family:Cabin;-inkscape-font-specification:Cabin;fill:#808080;stroke-width:0.91086292"
       d="m 1012.0753,390.64301 v 42.26973 H 996.27749 V 301.4923 q 0,-38.93939 36.37761,-38.93939 37.0607,0 37.0607,32.87646 0,23.39779 -14.6877,31.93713 23.9102,7.68541 23.9102,30.48545 0,40.47647 -41.1596,40.47647 -18.1034,0 -25.7034,-7.68541 z m 0,-20.49441 q 9.4786,14.77305 26.3011,14.77305 24.5933,0 24.5933,-26.81352 0,-24.08094 -39.6225,-22.20229 v -14.51687 q 30.9978,0 30.9978,-27.32589 0,-18.70116 -19.9821,-18.70116 -22.2876,0 -22.2876,26.64274 z"
       inkscape:connector-curvature="0" /><path
       id="path5077"
       style="font-style:normal;font-variant:normal;font-weight:normal;font-stretch:normal;font-size:174.88568115px;font-family:Cabin;-inkscape-font-specification:Cabin;fill:#808080;stroke-width:0.91086292"
       d="m 1179.4586,396.53516 v -47.21914 c 0,-24.65888 -9.9685,-40.2237 -34.9771,-40.2237 -9.0941,0 -18.5379,2.09862 -28.3315,10.84291 l -1.7489,-9.09406 h -12.242 v 85.69399 h 15.7397 v -62.25931 c 4.3722,-7.69497 13.6411,-11.19268 23.4347,-11.19268 16.2644,0 22.3854,8.04474 22.3854,26.23285 v 47.21914 z"
       inkscape:connector-curvature="0" /><path
       id="path5079"
       style="font-style:normal;font-variant:normal;font-weight:normal;font-stretch:normal;font-size:174.88568115px;font-family:Cabin;-inkscape-font-specification:Cabin;fill:#808080;stroke-width:0.91086292"
       d="m 1221.4451,390.64301 v 42.26973 h -15.7977 V 301.4923 q 0,-38.93939 36.3776,-38.93939 37.0607,0 37.0607,32.87646 0,23.39779 -14.6877,31.93713 23.9102,7.68541 23.9102,30.48545 0,40.47647 -41.1596,40.47647 -18.1034,0 -25.7035,-7.68541 z m 0,-20.49441 q 9.4787,14.77305 26.3012,14.77305 24.5933,0 24.5933,-26.81352 0,-24.08094 -39.6225,-22.20229 v -14.51687 q 30.9978,0 30.9978,-27.32589 0,-18.70116 -19.9821,-18.70116 -22.2877,0 -22.2877,26.64274 z"
       inkscape:connector-curvature="0" /></g></g></svg>